<?xml version="1.0" encoding="utf-8"?>
<!-- Generator: Adobe Illustrator 14.0.0, SVG Export Plug-In . SVG Version: 6.00 Build 43363)  -->
<!DOCTYPE svg PUBLIC "-//W3C//DTD SVG 1.1//EN" "http://www.w3.org/Graphics/SVG/1.1/DTD/svg11.dtd">
<svg version="1.1" id="Capa_1" xmlns="http://www.w3.org/2000/svg" xmlns:xlink="http://www.w3.org/1999/xlink" x="0px" y="0px"
	 width="164.414px" height="56.5px" viewBox="0 0 164.414 56.5" enable-background="new 0 0 164.414 56.5" xml:space="preserve">
<g>
	<polygon fill="#82C341" points="104.981,46.265 47.856,46.265 47.856,14.243 117.432,14.243 	"/>
	<path fill="none" d="M121.102,4.88"/>
	<polygon fill="#82C341" points="120.858,5.618 153.104,5.618 153.104,10.339 119.022,10.339 	"/>
	<g>
		<g>
			<path fill="#009ADA" d="M126.192,33.876c-0.736,0-1.465-0.102-2.183-0.307c-0.717-0.205-1.353-0.518-1.905-0.938
				s-0.998-0.938-1.336-1.553c-0.339-0.613-0.509-1.33-0.509-2.15v-0.063c0-0.859,0.165-1.613,0.493-2.259
				c0.327-0.646,0.793-1.185,1.396-1.612c0.604-0.432,1.321-0.759,2.152-0.984c0.83-0.225,1.746-0.338,2.751-0.338
				c1.023,0,1.91,0.062,2.658,0.185s1.479,0.287,2.196,0.491V23.86c0-1.404-0.408-2.468-1.229-3.189
				c-0.818-0.725-1.978-1.084-3.474-1.084c-0.943,0-1.798,0.103-2.566,0.307c-0.769,0.205-1.521,0.48-2.259,0.83l-0.707-1.948
				c0.881-0.416,1.771-0.747,2.674-0.997c0.901-0.249,1.938-0.374,3.104-0.374c2.254,0,3.965,0.584,5.133,1.753
				c1.106,1.105,1.66,2.663,1.66,4.672v9.713h-2.337v-2.369c-0.553,0.718-1.297,1.349-2.229,1.892
				C128.749,33.604,127.586,33.876,126.192,33.876z M126.671,31.94c0.735,0,1.42-0.102,2.054-0.307
				c0.633-0.203,1.188-0.494,1.67-0.871c0.479-0.379,0.857-0.826,1.133-1.348c0.275-0.519,0.414-1.096,0.414-1.728v-1.47
				c-0.594-0.161-1.268-0.314-2.021-0.457c-0.756-0.143-1.624-0.215-2.604-0.215c-1.471,0-2.608,0.291-3.416,0.873
				c-0.808,0.58-1.211,1.351-1.211,2.308v0.062c0,0.49,0.107,0.935,0.322,1.33c0.215,0.398,0.506,0.729,0.873,0.994
				c0.367,0.264,0.791,0.469,1.271,0.612C125.635,31.87,126.141,31.94,126.671,31.94z"/>
			<path fill="#009ADA" d="M139.255,17.648h2.366v4.149c0.287-0.655,0.646-1.26,1.076-1.813c0.431-0.553,0.922-1.028,1.476-1.429
				s1.157-0.702,1.813-0.907c0.654-0.204,1.361-0.297,2.119-0.276v2.553h-0.185c-0.86,0-1.675,0.152-2.442,0.461
				c-0.77,0.307-1.439,0.769-2.015,1.383c-0.575,0.613-1.024,1.378-1.353,2.29s-0.491,1.962-0.491,3.149v6.334h-2.366
				L139.255,17.648L139.255,17.648z"/>
		</g>
	</g>
	<g>
		<path fill="#77787B" d="M26.612,41.298c-1.791,0-3.428-0.293-4.908-0.879s-2.895-1.485-4.237-2.701l1.567-1.854
			c1.172,1.066,2.354,1.859,3.549,2.384c1.193,0.521,2.568,0.78,4.125,0.78c1.514,0,2.723-0.354,3.629-1.069
			s1.357-1.625,1.357-2.734v-0.063c0-0.513-0.084-0.978-0.256-1.392c-0.17-0.418-0.47-0.795-0.896-1.138
			c-0.428-0.34-1.021-0.647-1.779-0.928c-0.758-0.274-1.726-0.543-2.9-0.797c-1.28-0.277-2.397-0.599-3.349-0.961
			c-0.952-0.361-1.737-0.799-2.356-1.311s-1.078-1.108-1.377-1.79c-0.299-0.683-0.448-1.481-0.448-2.397v-0.064
			c0-0.873,0.181-1.684,0.543-2.43s0.874-1.392,1.535-1.936c0.659-0.543,1.438-0.971,2.334-1.277
			c0.896-0.31,1.876-0.465,2.942-0.465c1.642,0,3.073,0.229,4.299,0.688c1.227,0.459,2.416,1.146,3.565,2.063l-1.471,1.95
			c-1.045-0.854-2.095-1.471-3.149-1.854c-1.056-0.385-2.158-0.576-3.311-0.576c-1.471,0-2.633,0.347-3.484,1.039
			c-0.854,0.692-1.279,1.552-1.279,2.574v0.063c0,0.533,0.086,1.007,0.256,1.423s0.479,0.8,0.928,1.151
			c0.447,0.353,1.064,0.672,1.854,0.959s1.803,0.56,3.039,0.814c2.493,0.555,4.331,1.322,5.516,2.303
			c1.184,0.981,1.773,2.324,1.773,4.028v0.063c0,0.959-0.189,1.828-0.568,2.605c-0.379,0.779-0.9,1.443-1.565,1.998
			c-0.666,0.555-1.468,0.98-2.405,1.279C28.743,41.149,27.72,41.298,26.612,41.298z"/>
		<path fill="#77787B" d="M39.593,18.596h2.526v22.382h-2.526V18.596z"/>
	</g>
	<g>
		<path fill="#FFFFFF" d="M61.786,40.263c-1.463,0-2.809-0.27-4.04-0.809c-1.229-0.537-2.3-1.273-3.203-2.207
			c-0.903-0.933-1.61-2.033-2.12-3.304s-0.766-2.627-0.766-4.069v-0.059c0-1.424,0.256-2.771,0.766-4.039
			c0.51-1.271,1.217-2.382,2.12-3.333c0.903-0.952,1.981-1.702,3.231-2.251c1.252-0.548,2.617-0.822,4.099-0.822
			c0.923,0,1.756,0.078,2.496,0.23c0.739,0.154,1.429,0.371,2.063,0.648c0.636,0.279,1.222,0.617,1.761,1.01
			c0.539,0.396,1.059,0.832,1.56,1.314l-1.56,1.674c-0.864-0.809-1.793-1.473-2.785-1.992c-0.989-0.519-2.178-0.777-3.563-0.777
			c-1.115,0-2.15,0.212-3.104,0.635c-0.952,0.424-1.779,1.01-2.48,1.76c-0.701,0.752-1.251,1.631-1.645,2.642
			c-0.396,1.01-0.592,2.092-0.592,3.245v0.059c0,1.174,0.196,2.266,0.592,3.275c0.394,1.011,0.941,1.89,1.645,2.64
			c0.701,0.752,1.529,1.345,2.48,1.774c0.953,0.435,1.986,0.65,3.104,0.65c1.385,0,2.576-0.256,3.577-0.766
			c1-0.51,1.981-1.227,2.942-2.15l1.5,1.473c-0.52,0.539-1.063,1.023-1.629,1.457c-0.568,0.433-1.18,0.806-1.834,1.111
			c-0.652,0.307-1.354,0.549-2.104,0.721C63.546,40.177,62.709,40.263,61.786,40.263z"/>
		<path fill="#FFFFFF" d="M79.878,31.925l-8.396-12.207h2.77l6.796,10.1l6.854-10.1h2.653l-8.397,12.178v8.021H79.88v-7.992H79.878z
			"/>
		<path fill="#FFFFFF" d="M99.268,21.825h-6.779v-2.107h15.841v2.107h-6.78v18.092H99.27V21.825H99.268z"/>
	</g>
	<g>
		<rect x="10.157" y="49.722" fill="#82C341" width="142.941" height="1.898"/>
	</g>
</g>
</svg>
